HIERARCHY
ROOT Hips
{
  OFFSET 90.7885 88.945 -76.2838
  CHANNELS 6 Xposition Yposition Zposition Zrotation Xrotation Yrotation
  JOINT LeftUpLeg
  {
    OFFSET 8.64259 1.95398 -2.38835
    CHANNELS 3 Zrotation Xrotation Yrotation
    JOINT LeftLeg
    {
      OFFSET 43.7702 0 0
      CHANNELS 3 Zrotation Xrotation Yrotation
      JOINT LeftFoot
      {
        OFFSET 40.6238 0 0
        CHANNELS 3 Zrotation Xrotation Yrotation
        JOINT LeftToeBase
        {
          OFFSET 12.7242 0 0
          CHANNELS 3 Zrotation Xrotation Yrotation
          End Site
          {
            OFFSET 0 0 0
          }
        }
      }
    }
  }
  JOINT RightUpLeg
  {
    OFFSET -8.2249 1.95398 -2.59336
    CHANNELS 3 Zrotation Xrotation Yrotation
    JOINT RightLeg
    {
      OFFSET 43.5653 0 0
      CHANNELS 3 Zrotation Xrotation Yrotation
      JOINT RightFoot
      {
        OFFSET 40.6238 0 0
        CHANNELS 3 Zrotation Xrotation Yrotation
        JOINT RightToeBase
        {
          OFFSET 12.7242 0 0
          CHANNELS 3 Zrotation Xrotation Yrotation
          End Site
          {
            OFFSET 0 0 0
          }
        }
      }
    }
  }
  JOINT Spine
  {
    OFFSET 0.165834 0.87714 6.61349
    CHANNELS 3 Zrotation Xrotation Yrotation
    JOINT Spine1
    {
      OFFSET 7.38963 1.71661e-005 0
      CHANNELS 3 Zrotation Xrotation Yrotation
      JOINT Spine2
      {
        OFFSET 11.9445 1.14441e-005 0
        CHANNELS 3 Zrotation Xrotation Yrotation
        JOINT Spine3
        {
          OFFSET 14.7254 4.19617e-005 0
          CHANNELS 3 Zrotation Xrotation Yrotation
          JOINT Spine4
          {
            OFFSET 10.9679 0 0
            CHANNELS 3 Zrotation Xrotation Yrotation
            JOINT RightShoulder
            {
              OFFSET 2.46616 -1.6653 3.69651
              CHANNELS 3 Zrotation Xrotation Yrotation
              JOINT RightArm
              {
                OFFSET 13.0012 0 0
                CHANNELS 3 Zrotation Xrotation Yrotation
                JOINT RightForeArm
                {
                  OFFSET 28.7848 1.52588e-005 0
                  CHANNELS 3 Zrotation Xrotation Yrotation
                  JOINT RightHand
                  {
                    OFFSET 26.5688 1.52588e-005 0
                    CHANNELS 3 Zrotation Xrotation Yrotation
                    End Site
                    {
                      OFFSET 0 0 0
                    }
                  }
                }
              }
            }
            JOINT LeftShoulder
            {
              OFFSET 2.38034 -1.29275 -3.7523
              CHANNELS 3 Zrotation Xrotation Yrotation
              JOINT LeftArm
              {
                OFFSET 16.3182 6.10352e-005 0
                CHANNELS 3 Zrotation Xrotation Yrotation
                JOINT LeftForeArm
                {
                  OFFSET 27.0901 0 0
                  CHANNELS 3 Zrotation Xrotation Yrotation
                  JOINT LeftHand
                  {
                    OFFSET 24.5451 1.52588e-005 0
                    CHANNELS 3 Zrotation Xrotation Yrotation
                    End Site
                    {
                      OFFSET 0 0 0
                    }
                  }
                }
              }
            }
            JOINT Neck
            {
              OFFSET 5.0226 -0.0266342 0
              CHANNELS 3 Zrotation Xrotation Yrotation
              JOINT Head
              {
                OFFSET 6.69363 2.86102e-005 0
                CHANNELS 3 Zrotation Xrotation Yrotation
                End Site
                {
                  OFFSET 0 0 0
                }
              }
            }
          }
        }
      }
    }
  }
}
MOTION
Frames:	7
Frame Time:	0.0416667
-289.912 90.0294 297.457 103.369 38.6941 87.0293 -167.948 -17.0836 101.609 -40.4314 15.447 2.32724 66.1612 3.55754 1.7369 28.6533 6.39679 -9.26086 175.507 17.4402 97.0388 -33.9999 -8.60163 0.311785 66.1418 -2.81928 2.61048 17.8012 1.16015 0.00480112 -0.417634 7.81143 -90.6511 11.2439 -1.13417 -1.18432 -0.4271 -1.18516 -1.13327 -22.9598 -0.725832 -1.47039 -2.94719 -0.725834 -1.47039 92.1469 -28.8619 -102.85 45.7815 -3.1373 7.75111 7.06729 -4.79512 -5.15758 -21.878 0.292086 -8.09138 -87.785 -53.6846 82.6786 -14.7669 15.1759 -23.9665 6.00687 7.93142 -11.6871 -6.10798 0.178197 -12.596 0.246371 1.62936 -2.99414 -7.0815 1.99599 0.975107 
-282.866 90.9188 292.522 105.743 36.4428 86.116 -166.767 -5.163 103.772 -58.8215 15.1544 2.26519 55.9356 -0.586276 0.97466 8.52352 3.67343 -0.699431 175.705 9.68022 97.7178 -35.0276 -13.2775 -0.132832 71.0766 -5.2006 -3.05424 20.612 0.330839 1.01851 0.125425 8.12981 -90.6332 10.6119 -0.0414974 -1.2555 -1.05957 -0.0966928 -1.25246 -23.5903 0.337738 -1.20994 -3.57769 0.337737 -1.20994 91.9949 -29.0237 -103.105 44.6453 -4.99153 4.85379 6.67393 -7.63989 -8.28691 -21.8085 0.467172 -9.79191 -87.1239 -53.3931 83.5867 -19.3021 15.4127 -16.1677 6.29234 8.89993 -11.0316 0.351574 -0.18083 -7.20194 3.39217 0.837509 -2.70312 -7.20505 1.20522 1.83084 
-278.012 91.8912 288.652 103.793 41.0461 85.7035 -171.398 11.8938 97.4542 -67.3219 11.786 3.5938 68.3581 4.66798 1.62857 10.1738 5.66851 -3.22099 174.315 4.96364 96.9599 -32.6205 -8.63076 0.0711965 75.7372 -6.55598 0.345917 19.1503 0.228733 1.48103 0.218422 7.99835 -90.4844 10.8785 0.211011 -0.98283 -0.792818 0.167557 -0.991163 -23.3254 0.496623 -0.873994 -3.31275 0.496628 -0.873991 91.8254 -29.4214 -103.314 41.7609 -7.9693 1.085 5.72438 -14.0376 -12.2317 -23.2111 0.0963043 -9.17761 -86.9731 -53.0613 83.7543 -21.9158 16.5274 -9.85155 5.24916 9.37046 -8.85581 -0.574611 -0.0915698 -4.4674 2.31419 -1.27138 -2.72622 -4.86344 -0.895609 2.93012 
-272.565 92.8097 283.117 102.638 40.8947 83.5013 -174.344 20.1869 91.2909 -54.2037 1.97758 0.532824 72.6016 6.39165 -0.994384 10.58 0.258041 2.40045 172.605 -0.474156 90.1602 -28.5931 -9.05135 -0.83206 79.338 -7.51161 3.12095 19.9244 0.572462 0.676742 0.748092 8.05509 -90.1221 10.7679 1.43343 -0.375479 -0.902378 1.41551 -0.438211 -23.4439 1.47998 0.0727742 -3.43124 1.47999 0.0727849 91.8248 -29.1046 -103.422 37.9217 -9.43372 -4.17105 4.57937 -14.9397 -14.6965 -25.7106 0.0354211 -8.7088 -86.8253 -51.5913 83.7428 -25.4398 14.997 -2.88201 5.07561 5.56376 -8.44476 -1.11934 -0.104998 -5.97227 2.55064 -2.64334 -2.26121 -4.41264 -2.30297 2.986 
-266.941 92.5185 277.719 102.27 39.0263 81.8694 -176.383 20.4148 88.2989 -26.4751 -1.96596 -2.3086 62.6133 2.85485 -1.15716 17.5747 -0.716393 2.63397 171.098 -6.67736 88.6376 -26.3878 -12.1598 -1.82478 83.2168 -9.22009 3.92269 20.2926 1.93983 -2.03061 1.10063 8.19988 -89.9652 10.4769 2.20837 -0.126682 -1.19218 2.20066 -0.223815 -23.7418 2.14428 0.543194 -3.72915 2.1443 0.543197 91.6718 -27.5322 -104.288 33.5788 -10.0771 -10.3692 2.90043 -17.3987 -18.7971 -25.6267 -0.780925 -5.24707 -86.3098 -54.0029 84.8531 -25.0643 11.9539 4.93028 6.39964 5.39332 -10.9193 -2.52624 -0.0900778 -4.70895 3.69661 -2.13833 2.2251 -4.2081 -2.5088 1.08978 
-260.235 91.0904 271.373 102.671 37.8743 81.2759 -179.833 18.6129 88.0416 -7.20542 -7.40319 -2.24529 61.155 2.79376 -3.09728 15.9605 -0.505682 2.58633 168.304 -14.7333 85.3573 -22.8618 -15.1949 -1.74192 85.9658 -11.0422 2.84924 21.9396 1.22073 -1.01008 1.24958 8.32004 -89.9579 10.2368 2.50893 -0.130612 -1.43173 2.50074 -0.240989 -23.9855 2.43212 0.629921 -3.97288 2.43211 0.629907 90.8927 -27.7096 -105.833 28.0126 -10.1306 -15.3857 2.58525 -16.3478 -19.7364 -28.1512 -0.392182 -6.79243 -86.4101 -56.3085 85.0293 -24.6509 9.62343 10.5081 5.70778 -0.317311 -9.29565 -2.11777 -0.0917037 -5.00301 4.25966 -1.2809 4.20886 -3.16627 -2.01125 0.54433 
-252.522 89.7938 264.085 102.06 34.8904 81.0123 -178.459 20.3377 87.2148 -14.1112 -5.6667 -2.73884 57.3334 0.650742 -2.52576 13.675 -1.07235 3.49879 164.234 -20.5697 79.7364 -21.6754 -22.2832 -2.32471 84.1007 -11.7895 -0.390176 28.1913 -0.0766325 0.119964 1.54675 8.31921 -89.8376 10.2392 3.15603 0.0517458 -1.42795 3.15524 -0.0873576 -23.9915 2.99445 0.998725 -3.97881 2.99445 0.998718 91.1063 -27.2743 -105.556 29.0259 -7.76179 -18.6533 0.354407 -18.7957 -20.4141 -31.8074 -0.776625 -5.81379 -85.2385 -57.8186 86.8561 -23.7091 9.76605 10.3573 4.65384 -5.01114 -2.77636 -2.29299 -0.0894231 -3.85631 7.17557 -0.749804 4.70615 -4.45922 -1.68139 0.252729 
